<?xml version="1.0" encoding="UTF-8" standalone="no"?>
<!-- Created with Inkscape (http://www.inkscape.org/) -->

<svg
   width="59.999962mm"
   height="60.130352mm"
   viewBox="0 0 59.999962 60.130352"
   version="1.1"
   id="svg673"
   inkscape:version="1.2.1 (9c6d41e, 2022-07-14)"
   sodipodi:docname="drawing.svg"
   xmlns:inkscape="http://www.inkscape.org/namespaces/inkscape"
   xmlns:sodipodi="http://sodipodi.sourceforge.net/DTD/sodipodi-0.dtd"
   xmlns:xlink="http://www.w3.org/1999/xlink"
   xmlns="http://www.w3.org/2000/svg"
   xmlns:svg="http://www.w3.org/2000/svg">
  <sodipodi:namedview
     id="namedview675"
     pagecolor="#ffffff"
     bordercolor="#000000"
     borderopacity="0.25"
     inkscape:showpageshadow="2"
     inkscape:pageopacity="0.0"
     inkscape:pagecheckerboard="0"
     inkscape:deskcolor="#d1d1d1"
     inkscape:document-units="mm"
     showgrid="true"
     inkscape:zoom="0.75633418"
     inkscape:cx="396.65007"
     inkscape:cy="561.92093"
     inkscape:window-width="1920"
     inkscape:window-height="1019"
     inkscape:window-x="0"
     inkscape:window-y="28"
     inkscape:window-maximized="1"
     inkscape:current-layer="layer1">
    <inkscape:grid
       type="xygrid"
       id="grid2891" />
  </sodipodi:namedview>
  <defs
     id="defs670">
    <linearGradient
       inkscape:collect="always"
       id="linearGradient1444">
      <stop
         style="stop-color:#ffa500;stop-opacity:1;"
         offset="0.74533623"
         id="stop1440" />
      <stop
         style="stop-color:#ff6347;stop-opacity:1;"
         offset="1"
         id="stop1442" />
    </linearGradient>
    <linearGradient
       inkscape:collect="always"
       xlink:href="#linearGradient1444"
       id="linearGradient1446"
       x1="38.816711"
       y1="87.304321"
       x2="98.816673"
       y2="87.304321"
       gradientUnits="userSpaceOnUse" />
    <linearGradient
       inkscape:collect="always"
       xlink:href="#linearGradient1444"
       id="linearGradient719"
       gradientUnits="userSpaceOnUse"
       x1="38.816711"
       y1="87.304321"
       x2="98.816673"
       y2="87.304321" />
    <linearGradient
       inkscape:collect="always"
       xlink:href="#linearGradient1444"
       id="linearGradient721"
       gradientUnits="userSpaceOnUse"
       x1="38.816711"
       y1="87.304321"
       x2="98.816673"
       y2="87.304321" />
    <linearGradient
       inkscape:collect="always"
       xlink:href="#linearGradient1444"
       id="linearGradient723"
       gradientUnits="userSpaceOnUse"
       x1="38.816711"
       y1="87.304321"
       x2="98.816673"
       y2="87.304321" />
  </defs>
  <g
     inkscape:label="Layer 1"
     inkscape:groupmode="layer"
     id="layer1"
     transform="translate(-38.816712,-57.239153)">
    <g
       id="g861"
       style="fill:url(#linearGradient1446);fill-opacity:1"
       inkscape:export-filename="g861.png"
       inkscape:export-xdpi="1733.9744"
       inkscape:export-ydpi="1733.9744">
      <path
         fill="#000000"
         d="m 92.795503,66.64955 c -14.58059,14.504732 -29.0239,29.150361 -43.615339,43.65147 a 0.23843394,0.23843394 0 0 1 -0.339587,-0.004 l -3.012939,-3.03461 a 0.24927184,0.24927184 0 0 1 0,-0.35041 L 89.421313,63.310997 a 0.22037075,0.22037075 0 0 0 0,-0.310687 l -2.30124,-2.326536 a 0.20230758,0.20230758 0 0 1 0.0902,-0.335976 l 11.50263,-3.096029 a 0.08309063,0.08309063 0 0 1 0.10116,0.101148 l -3.09964,11.629074 q -0.065,0.24927 -0.24928,0.06864 l -2.38795,-2.391565 a 0.19869494,0.19869494 0 0 0 -0.28179,0 z"
         id="path462"
         style="fill:url(#linearGradient719);fill-opacity:1;stroke-width:0.361263" />
      <path
         fill="#000000"
         d="m 44.205565,92.519631 c 5.715189,-5.74048 11.220848,-11.329223 17.203368,-17.178079 a 0.18063177,0.18063177 0 0 0 0.004,-0.256498 l -2.41323,-2.409628 q -0.13729,-0.137281 0.0505,-0.187856 l 11.38702,-3.05629 a 0.22398339,0.22398339 0 0 1 0.27456,0.274559 l -2.95874,11.126918 q -0.12289,0.469642 -0.46603,0.126437 l -2.12784,-2.127843 a 0.31068664,0.31068664 0 0 0 -0.43714,0 L 42.204165,101.42478 a 0.16618123,0.16256859 53.9 0 1 -0.263723,-0.0434 C 32.590943,82.942536 45.303806,60.76818 65.794673,59.406216 q 8.9449,-0.592472 16.86378,4.04254 a 0.1734065,0.1734065 0 0 1 0.0362,0.270947 l -3.15743,3.153831 a 0.28539819,0.28901083 36.1 0 1 -0.33236,0.05419 C 65.343083,59.785543 49.447499,66.721803 44.628243,81.37104 q -1.730453,5.252771 -0.581635,11.101621 0.03613,0.17342 0.158957,0.0469 z"
         id="path464"
         style="fill:url(#linearGradient721);fill-opacity:1;stroke-width:0.361263" />
      <path
         fill="#000000"
         d="m 72.207113,108.32491 c -0.7948,-0.63943 -1.73046,-1.59679 -2.39519,-2.38074 a 0.17701913,0.18063177 46.9 0 0 -0.26372,-0.007 l -5.95723,5.97169 q -0.14811,0.14811 0.0542,0.19146 c 11.41232,2.40964 22.90772,-4.81203 26.74435,-15.281439 q 3.61985,-9.87695 -1.26081,-20.003163 a 0.21675813,0.21314548 55 0 1 0.0434,-0.249271 l 3.16829,-3.161057 a 0.17701913,0.17701913 0 0 1 0.27817,0.03613 c 9.793847,16.372451 1.3114,37.33296 -16.59283,42.67245 q -10.85237,3.23691 -21.23146,-1.87136 a 0.16256859,0.16256859 0 0 1 -0.0433,-0.26011 l 11.27503,-11.30031 a 0.40461517,0.40461517 0 0 0 0,-0.57441 l -2.34461,-2.315709 a 0.06864006,0.07225271 59.8 0 1 0.0325,-0.11916 l 11.69773,-3.15022 a 0.10476644,0.10115379 0.5 0 1 0.12643,0.12644 l -3.12132,11.607389 a 0.1336675,0.13005488 26.6 0 1 -0.20953,0.0686 z"
         id="path466"
         style="fill:url(#linearGradient723);fill-opacity:1;stroke-width:0.361263" />
    </g>
  </g>
</svg>
